<svg width="120" height="13" viewBox="0 0 120 13" fill="none" xmlns="http://www.w3.org/2000/svg">
<path d="M23.8721 10.11V8.57889C23.8721 8.57889 25.7976 8.59467 26.1291 8.57889C26.4526 8.55521 26.6341 8.28686 26.3974 7.97117C26.1606 7.66338 24.5902 5.54823 24.2193 5.05891C23.7379 4.41172 23.6748 2.4939 25.6161 2.4939H30.4221V4.02501H28.0309C28.0309 4.02501 27.6837 4.2381 27.8573 4.51433C28.0309 4.78268 29.9565 7.34769 30.1853 7.67916C30.4221 8.01063 30.4221 8.61835 30.4221 8.75251C30.4221 8.8867 30.1143 10.1337 28.9858 10.11C27.8573 10.0942 23.8721 10.11 23.8721 10.11ZM32.9869 2.4939H39.6001V4.02501H36.2146V5.64293H39.6001V7.13458H36.2146V8.53942H39.6001V10.11H32.9869V2.4939ZM42.4568 10.11V2.4939H45.9134L49.1016 7.27666V2.4939H50.5773V10.11H47.1208L43.9326 5.2878V10.11H42.4568ZM53.2605 10.11V2.4939H56.7249L59.9131 7.27666V2.4939H61.3888V10.11H57.9244L54.7362 5.2878V10.11H53.2605ZM76.7617 2.4939H83.3749V4.02501H79.9894V5.64293H83.3749V7.13458H79.9894V8.53942H83.3749V10.11H76.7617V2.4939ZM101.281 2.4939H107.886V4.02501H104.509V5.64293H107.886V7.13458H104.509V8.53942H107.886V10.11H101.281L101.281 2.4939ZM92.1977 10.11V8.57889C92.1977 8.57889 94.1233 8.59467 94.4547 8.57889C94.7862 8.55521 94.9598 8.28686 94.723 7.97117C94.4942 7.66338 92.9238 5.54823 92.5528 5.05891C92.0636 4.41172 92.0083 2.4939 93.9497 2.4939H98.7478V4.02501H96.3566C96.3566 4.02501 96.0094 4.2381 96.183 4.51433C96.3566 4.78268 98.2822 7.34769 98.5189 7.67916C98.7478 8.01063 98.7478 8.61835 98.7478 8.75251C98.7478 8.8867 98.44 10.1337 97.3115 10.11C96.183 10.0942 92.1977 10.11 92.1977 10.11ZM64.4192 2.4939H67.5916V5.50088H70.3537V2.4939H73.5419V10.11H70.3537V7.13457H67.5916V10.11H64.4192L64.4192 2.4939ZM86.2159 2.4939H89.5935V10.11H86.2159V2.4939Z" fill="white"/>
<path d="M113.995 4.02502H116.109C116.109 4.02502 116.749 4.14342 116.749 4.84583C116.749 5.50088 116.109 5.64295 116.109 5.64295H113.995V4.02502ZM110.767 10.11H113.995V7.13458H115.391L117.041 10.11H120L118.311 6.92148C118.311 6.92148 119.866 6.4006 119.866 4.70375C119.866 2.50968 117.491 2.4939 117.491 2.4939H110.767V10.11" fill="white"/>
<path fill-rule="evenodd" clip-rule="evenodd" d="M16.7223 11.2623H9.17795C9.10693 11.3886 8.78336 11.9648 8.27041 12.4225H17.8035V3.03855H16.7223V11.2623ZM1.09693 1.18384H8.23094C8.51505 0.749759 8.68868 0.481441 8.68868 0.481441C8.80704 0.315682 8.97278 0.165733 9.17006 0.0236685H0.0157834V9.37608H1.09692V1.18384M9.20162 0.836588L4.11154 8.66577C3.8511 9.06827 2.9041 9.99169 2.31223 9.99169H0V12.4067H6.94461C7.73379 12.3831 8.53873 11.3807 8.74393 10.9861C8.74393 10.9861 13.3763 3.64625 13.6604 3.22795C14.0629 2.63603 15.1046 2.41505 15.6649 2.41505L17.8035 2.39137V0.0236685C16.4225 0.0236685 10.9457 0 10.9457 0C10.3538 0 9.51729 0.402497 9.20162 0.836588Z" fill="white"/>
</svg>
